<svg width="16" height="16" viewBox="0 0 16 16" fill="none" xmlns="http://www.w3.org/2000/svg">
<path d="M9.27531 0C5.96189 0 3.27584 2.68606 3.27584 5.99947C3.27584 7.60086 3.90325 9.0557 4.92567 10.1316L0 15.0573L0.942726 16L5.94933 10.9934C6.90125 11.6286 8.04503 11.9989 9.27531 11.9989C12.5887 11.9989 15.2748 9.31289 15.2748 5.99947C15.2748 2.68606 12.5887 0 9.27531 0ZM4.60905 5.99947C4.60905 3.42237 6.69821 1.33322 9.27531 1.33322C11.8524 1.33322 13.9416 3.42237 13.9416 5.99947C13.9416 8.57658 11.8524 10.6657 9.27531 10.6657C6.69821 10.6657 4.60905 8.57658 4.60905 5.99947Z" fill="#9ba3b4"/>
</svg>
