<svg width="16" height="16" viewBox="0 0 16 16" fill="none" xmlns="http://www.w3.org/2000/svg">
<path d="M8.0162 1C8.25723 1 8.45269 1.19588 8.45269 1.4375V2.3125C8.45269 2.55412 8.25723 2.75 8.0162 2.75C7.77514 2.75 7.57971 2.55412 7.57971 2.3125V1.4375C7.57971 1.19588 7.77514 1 8.0162 1ZM8.0162 11.5C9.94469 11.5 11.5081 9.93296 11.5081 8C11.5081 6.067 9.94469 4.5 8.0162 4.5C6.08767 4.5 4.5243 6.067 4.5243 8C4.5243 9.93296 6.08767 11.5 8.0162 11.5ZM8.0162 10.625C6.56981 10.625 5.39727 9.44979 5.39727 8C5.39727 6.55026 6.56981 5.375 8.0162 5.375C9.46263 5.375 10.6351 6.55026 10.6351 8C10.6351 9.44979 9.46263 10.625 8.0162 10.625ZM14.5635 8.4375C14.8045 8.4375 15 8.24159 15 8C15 7.75838 14.8045 7.5625 14.5635 7.5625H13.6905C13.4495 7.5625 13.2541 7.75838 13.2541 8C13.2541 8.24159 13.4495 8.4375 13.6905 8.4375H14.5635ZM8.0162 13.25C8.25723 13.25 8.45269 13.4459 8.45269 13.6875V14.5625C8.45269 14.8041 8.25723 15 8.0162 15C7.77514 15 7.57971 14.8041 7.57971 14.5625V13.6875C7.57971 13.4459 7.77514 13.25 8.0162 13.25ZM2.34186 8.4375C2.58292 8.4375 2.77835 8.24159 2.77835 8C2.77835 7.75838 2.58292 7.5625 2.34186 7.5625H1.43649C1.19542 7.5625 1 7.75838 1 8C1 8.24159 1.19542 8.4375 1.43649 8.4375H2.34186ZM2.90619 2.87814C3.07665 2.70728 3.35302 2.70728 3.52347 2.87814L4.39645 3.75314C4.56692 3.924 4.56692 4.201 4.39645 4.37186C4.22599 4.54272 3.94963 4.54272 3.77917 4.37186L2.90619 3.49686C2.73573 3.326 2.73573 3.049 2.90619 2.87814ZM3.52347 13.1219C3.35302 13.2927 3.07665 13.2927 2.90619 13.1219C2.73573 12.951 2.73573 12.674 2.90619 12.5031L3.77917 11.6281C3.94963 11.4573 4.22599 11.4573 4.39645 11.6281C4.56692 11.799 4.56692 12.076 4.39645 12.2469L3.52347 13.1219ZM13.1262 2.87814C12.9558 2.70728 12.6794 2.70728 12.5089 2.87814L11.6359 3.75314C11.4655 3.924 11.4655 4.201 11.6359 4.37186C11.8064 4.54272 12.0828 4.54272 12.2533 4.37186L13.1262 3.49686C13.2967 3.326 13.2967 3.049 13.1262 2.87814ZM12.5089 13.1219C12.6794 13.2927 12.9558 13.2927 13.1262 13.1219C13.2967 12.951 13.2967 12.674 13.1262 12.5031L12.2533 11.6281C12.0828 11.4573 11.8064 11.4573 11.6359 11.6281C11.4655 11.799 11.4655 12.076 11.6359 12.2469L12.5089 13.1219Z" fill="#9ba3b4"/>
</svg>
