<?xml version="1.0" ?><!-- Uploaded to: SVG Repo, www.svgrepo.com, Generator: SVG Repo Mixer Tools -->
<svg width="800px" height="800px" viewBox="0 0 48 48" id="Layer_1" version="1.1" xml:space="preserve" xmlns="http://www.w3.org/2000/svg" xmlns:xlink="http://www.w3.org/1999/xlink"><style type="text/css">
	.st0{fill:#010101;}
</style><path class="st0" d="M41.5,7h-34C7.224,7,7,7.224,7,7.5v21.83c0,0.276,0.224,0.5,0.5,0.5h10.663l-2.605,8.918  c-0.144,0.492-0.087,1.01,0.16,1.459c0.246,0.449,0.653,0.775,1.145,0.917c0.177,0.052,0.356,0.076,0.533,0.076  c0.83,0,1.597-0.544,1.841-1.379l2.918-9.993h3.69l2.919,9.993c0.244,0.835,1.011,1.379,1.841,1.379  c0.176,0,0.355-0.024,0.533-0.076c0.492-0.143,0.899-0.468,1.145-0.917c0.247-0.449,0.304-0.967,0.16-1.459l-2.605-8.918H41.5  c0.276,0,0.5-0.224,0.5-0.5V7.5C42,7.224,41.776,7,41.5,7z M41,8v18.012H18.583V24c0-0.276-0.224-0.5-0.5-0.5H12  c-0.276,0-0.5,0.224-0.5,0.5v2.012H8V8H41z M17.583,26.012H12.5V24.5h5.083V26.012z M18.276,39.542  c-0.141,0.484-0.651,0.762-1.135,0.623c-0.235-0.068-0.429-0.224-0.547-0.439c-0.118-0.215-0.146-0.462-0.077-0.698l2.688-9.199  h1.908L18.276,39.542z M31.482,39.029c0.069,0.235,0.042,0.483-0.077,0.698c-0.118,0.215-0.312,0.371-0.547,0.439  c-0.484,0.137-0.995-0.139-1.135-0.623l-2.837-9.712h1.908L31.482,39.029z M29.17,28.83h-2.95h-4.44h-2.95H8v-1.818h4h6.083H41  v1.818H29.17z"/></svg>