<?xml version="1.0" ?><!-- Uploaded to: SVG Repo, www.svgrepo.com, Generator: SVG Repo Mixer Tools -->
<svg width="800px" height="800px" viewBox="0 0 2050 2050" data-name="Layer 2" id="Layer_2" xmlns="http://www.w3.org/2000/svg"><defs><style>.cls-1{fill:#4d4c78;}.cls-2{fill:#f4c23f;}.cls-3{fill:#f4a93f;}.cls-4{fill:#67baeb;}.cls-5{fill:#46a1f8;}.cls-6{fill:#fad564;}</style></defs><title/><path class="cls-1" d="M1808.4,717.1a19.9,19.9,0,0,1-14.1-5.9L1344.6,261.5a20,20,0,0,1,28.3-28.3l449.6,449.7a20.1,20.1,0,0,1-14.1,34.2Z"/><path class="cls-1" d="M685.7,1823.1a19.8,19.8,0,0,1-14.1-5.8L221.9,1367.6a20,20,0,1,1,28.3-28.3L699.9,1789a20,20,0,0,1-14.2,34.1Z"/><circle class="cls-2" cx="403.3" cy="1523.5" r="68.9"/><path class="cls-3" d="M377.2,1544.8a69.1,69.1,0,0,1-14-77.3,73.8,73.8,0,0,0-8.6,7.3,68.9,68.9,0,0,0,97.4,97.4,70.1,70.1,0,0,0,14-20.1A68.9,68.9,0,0,1,377.2,1544.8Z"/><path class="cls-1" d="M1309.2,1188a19.9,19.9,0,0,1-14.1-5.9L851.2,738.3A20,20,0,0,1,879.5,710l443.9,443.8a20,20,0,0,1,0,28.3A20.3,20.3,0,0,1,1309.2,1188Z"/><circle class="cls-2" cx="1035.5" cy="891.4" r="68.9"/><path class="cls-3" d="M1095.1,912.6a68.8,68.8,0,0,1-116.6-59.9,68.9,68.9,0,1,0,124.9,49.9A71,71,0,0,1,1095.1,912.6Z"/><path class="cls-1" d="M1170.9,1338a20,20,0,0,1-14.2-5.9L717.8,893.2a20,20,0,0,1,28.3-28.3L1185,1303.8a20.1,20.1,0,0,1-14.1,34.2Z"/><circle class="cls-2" cx="1048.1" cy="1192.4" r="68.9"/><path class="cls-3" d="M1111.5,1216.1a68.9,68.9,0,0,1-114.1-70.2,68.8,68.8,0,1,0,116.2,68Z"/><path class="cls-4" d="M741.4,1959.1a60,60,0,1,1-84.8-84.9c56.3-56.3,80.1-127.3,74.8-223.4-4.5-84.2-31.1-179.4-59.1-273.2-3-10.3-6.1-20.7-9.2-31-10.5-34.9-21.1-70.2-30.9-105.5-21.1-76.3-38.4-152.9-42.4-226.6-7.1-130.8,28.8-233.7,109.9-314.8s184-116.9,314.8-109.8c73.6,4,150.2,21.3,226.5,42.4,9.8,35.3,20.4,70.6,30.9,105.6,3.1,10.3,6.2,20.6,9.2,30.9-93.7-28-189-54.5-273.1-59.1-96.2-5.2-167.2,18.6-223.5,74.9S704.4,911.9,709.7,1008c4.5,84.2,31.1,179.4,59,273.2l9.3,30.9c10.5,35,21.1,70.3,30.9,105.6,21.1,76.3,38.3,152.9,42.4,226.5C858.4,1775.1,822.4,1878,741.4,1959.1Z"/><path class="cls-5" d="M1271.9,737.9c-8.8-29.1-17.6-58.4-25.9-87.8-53.8-12.8-107.3-22.2-159.3-25-130.8-7.2-233.8,28.8-314.8,109.8S655,918.9,662.1,1049.7c4,73.6,21.2,150.2,42.4,226.5,9.7,35.4,20.3,70.7,30.8,105.6l9.3,30.9c27.9,93.8,54.5,189,59.1,273.2,5.2,96.2-18.6,167.2-74.9,223.5a59.9,59.9,0,0,0-13.2,64.9,59.9,59.9,0,0,0,25.8-15.2c81-81.1,117-184,109.9-314.9-4.1-73.6-21.3-150.2-42.4-226.5-9.8-35.3-20.4-70.6-30.9-105.6l-9.3-30.9c-27.9-93.8-54.5-189-59-273.2-5.3-96.1,18.5-167.1,74.8-223.4s127.3-80.1,223.5-74.9c84.1,4.6,179.4,31.1,273.1,59.1C1278.1,758.5,1275,748.2,1271.9,737.9Z"/><path class="cls-4" d="M1386.9,699.5c-2.9-10.3-5.9-20.7-8.8-31.1,93.3,29.3,188.2,57.2,272.3,62.9,96.1,6.5,167.4-16.3,224.5-71.8a60,60,0,1,1,83.6,86c-82.1,79.9-185.6,114.4-316.3,105.5-73.5-5-149.9-23.3-225.9-45.5C1407,770,1396.9,734.6,1386.9,699.5Z"/><path class="cls-5" d="M1959,656.6a60.1,60.1,0,0,0-28-15.8,47.7,47.7,0,0,1-5.5,6.4c-81,81.1-184,117-314.8,109.9-71.5-3.9-145.8-20.3-220-40.6,9.2,30.6,18.4,61.5,27,92.4,76.3,21.1,152.9,38.4,226.5,42.4C1775,858.4,1878,822.5,1959,741.5A60.1,60.1,0,0,0,1959,656.6Z"/><path class="cls-4" d="M1350.2,1350.3c-81,81-184,116.9-314.8,109.8-73.6-4-150.2-21.3-226.5-42.4-9.8-35.3-20.4-70.6-30.9-105.6l-9.3-30.9c93.8,28,189,54.5,273.2,59.1,96.2,5.2,167.2-18.6,223.5-74.9s80-127.3,74.8-223.4c-4.6-84.2-31.1-179.4-59.1-273.2-3-10.3-6.1-20.6-9.2-30.9-10.5-35-21.1-70.3-30.9-105.6-21.1-76.3-38.4-152.9-42.4-226.5-7.1-130.9,28.8-233.8,109.9-314.9a60,60,0,1,1,84.8,84.9c-56.3,56.3-80.1,127.3-74.8,223.4,4.5,84.2,31.1,179.4,59,273.2l9.3,31c10.5,34.9,21.1,70.2,30.9,105.5,21.1,76.4,38.3,152.9,42.3,226.6C1467.2,1166.3,1431.2,1269.2,1350.2,1350.3Z"/><path class="cls-4" d="M672.3,1377.6c-93.7-28-189-54.5-273.1-59.1-96.2-5.2-167.2,18.6-223.5,74.9a60,60,0,0,1-84.8-84.9c81-81,184-116.9,314.8-109.8,73.6,4,150.2,21.3,226.5,42.4,9.8,35.3,20.4,70.6,30.9,105.5C666.2,1356.9,669.3,1367.3,672.3,1377.6Z"/><path class="cls-5" d="M822,1351.8v-.3a17.4,17.4,0,0,1,21.4-21.6c83.8,24.5,167.6,46,242.6,50.1,96.1,5.2,167.1-18.6,223.4-74.9s80.1-127.3,74.9-223.4c-4.6-84.2-31.1-179.4-59.1-273.2-3.1-10.3-6.2-20.6-9.2-30.9-10.5-35-21.1-70.3-30.9-105.6-21.1-76.3-38.4-152.9-42.4-226.5-7.1-130.9,28.8-233.8,109.8-314.9a60,60,0,0,1,55.4-16.1,59.1,59.1,0,0,0-14.5-23.6,60,60,0,0,0-84.8,0c-81.1,81.1-117,184-109.9,314.9,4,73.6,21.3,150.2,42.4,226.5,9.8,35.3,20.4,70.6,30.9,105.6,3.1,10.3,6.2,20.6,9.2,30.9,28,93.8,54.5,189,59.1,273.2,5.2,96.1-18.5,167.1-74.8,223.4s-127.3,80.1-223.5,74.9c-84.2-4.6-179.4-31.1-273.2-59.1l9.3,30.9c10.5,35,21.1,70.3,30.9,105.6,11.8,3.3,23.6,6.5,35.4,9.5C837,1402,829.5,1376.8,822,1351.8Z"/><path class="cls-5" d="M134.9,1348.2c81-81,184-116.9,314.8-109.8,62.2,3.4,126.6,16.2,191.1,32.9-2.9-10.1-5.8-20.2-8.6-30.2-76.3-21.1-152.9-38.4-226.5-42.4-130.8-7.1-233.8,28.8-314.8,109.8a60,60,0,0,0,29.4,101A60.2,60.2,0,0,1,134.9,1348.2Z"/><circle class="cls-2" cx="1523.5" cy="403.4" r="68.9"/><path class="cls-3" d="M1494.7,429.7a68.8,68.8,0,0,1-11.4-82.3,64.4,64.4,0,0,0-8.5,7.3,68.9,68.9,0,0,0,97.4,97.4,71.4,71.4,0,0,0,11.4-15.1A69,69,0,0,1,1494.7,429.7Z"/><circle class="cls-6" cx="432.1" cy="1496.3" r="28.8"/><circle class="cls-6" cx="1066.2" cy="1161.6" r="30.7"/><circle class="cls-6" cx="1046.4" cy="859.1" r="30.7"/><circle class="cls-6" cx="1541" cy="378.1" r="30.7"/></svg>