<?xml version="1.0" ?><!-- Uploaded to: SVG Repo, www.svgrepo.com, Generator: SVG Repo Mixer Tools -->
<svg width="800px" height="800px" viewBox="0 0 48 48" id="Layer_1" version="1.1" xml:space="preserve" xmlns="http://www.w3.org/2000/svg" xmlns:xlink="http://www.w3.org/1999/xlink"><style type="text/css">
	.st0{fill:#010101;}
</style><path class="st0" d="M24.689,19.181l3.199,3.199c0.098,0.098,0.226,0.146,0.354,0.146s0.256-0.049,0.354-0.146l0.86-0.859  c0.919,0.75,2.032,1.148,3.157,1.148c1.284,0,2.569-0.489,3.547-1.466c1.838-1.838,1.933-4.739,0.329-6.705l0.86-0.859  c0.195-0.195,0.195-0.511,0.001-0.707L34.146,9.72c-0.791-0.78-1.944-0.98-2.918-0.553l-1.981-1.98  c-0.885-0.886-2.416-0.886-3.301,0l-3.873,3.873c-0.906,0.906-0.906,2.382,0,3.289l0.572,0.572l-3.41,3.4  c-1.728-0.12-3.26,1.272-3.26,3.021c0,0.872,0.392,1.695,1.039,2.277v10.395H16.31c-1.572,0-2.851,1.279-2.851,2.851v0.392h-0.243  c-1.572,0-2.851,1.279-2.851,2.851V41c0,0.276,0.224,0.5,0.5,0.5H27.18c0.276,0,0.5-0.224,0.5-0.5v-0.892  c0-1.572-1.278-2.851-2.851-2.851h-0.244v-0.392c0-1.572-1.278-2.851-2.851-2.851h-0.692V23.609c0.647-0.58,1.028-1.383,1.028-2.268  c0-0.048-0.007-0.091-0.009-0.138l2.358-2.357C24.503,18.963,24.586,19.082,24.689,19.181z M35.795,15.192  c1.221,1.571,1.105,3.855-0.343,5.304c-1.446,1.446-3.729,1.556-5.303,0.332l2.311-2.308L35.795,15.192z M32.273,9.945  c0.422,0,0.844,0.165,1.167,0.484l2.848,2.857l-1.696,1.693l-5.527,5.517c-0.002,0.002-0.002,0.004-0.003,0.005l-0.82,0.819  l-2.854-2.854c-0.171-0.163-0.302-0.374-0.377-0.619c-0.168-0.466-0.11-0.989,0.166-1.418c0.065-0.111,0.128-0.191,0.22-0.276  l5.724-5.724c0.092-0.092,0.188-0.17,0.281-0.229C31.67,10.029,31.972,9.945,32.273,9.945z M22.78,11.767l3.873-3.873  C26.907,7.64,27.242,7.5,27.597,7.5s0.689,0.14,0.943,0.394l1.852,1.851l-5.697,5.697l-0.058,0.056l-0.928-0.928  c-0.001-0.001-0.001-0.002-0.002-0.003s-0.002-0.001-0.003-0.002l-0.924-0.924C22.264,13.125,22.264,12.283,22.78,11.767z   M24.097,16.372c-0.183,0.475-0.214,0.994-0.105,1.486l-2.208,2.207c-0.296-0.631-0.809-1.138-1.433-1.447l3-2.991L24.097,16.372z   M26.68,40.108V40.5H11.365v-0.392c0-1.021,0.83-1.851,1.851-1.851h0.743h10.126h0.744C25.85,38.257,26.68,39.087,26.68,40.108z   M23.585,36.865v0.392h-9.126v-0.392c0-1.021,0.83-1.851,1.851-1.851h1.204h3.028h1.192C22.755,35.014,23.585,35.845,23.585,36.865z   M18.014,34.014v-9.788c0.322,0.112,0.66,0.174,1.009,0.174c0.355,0,0.697-0.063,1.02-0.177v9.79H18.014z M20.24,22.999  c-0.686,0.521-1.719,0.526-2.428,0.009c-0.524-0.391-0.838-1.015-0.838-1.667c0-1.239,1.135-2.23,2.376-2.021  c0.001,0,0.001,0,0.002,0c0,0,0,0,0,0c0.879,0.146,1.576,0.865,1.698,1.75c0.01,0.084,0.02,0.177,0.02,0.27  C21.07,22.001,20.769,22.605,20.24,22.999z"/></svg>