<?xml version="1.0" ?><!-- Uploaded to: SVG Repo, www.svgrepo.com, Generator: SVG Repo Mixer Tools -->
<svg width="800px" height="800px" viewBox="0 0 2050 2050" data-name="Layer 2" id="Layer_2" xmlns="http://www.w3.org/2000/svg"><defs><style>.cls-1{fill:#67baeb;}.cls-2{fill:#46a1f8;}.cls-3{fill:#4d4c78;}.cls-4{fill:#323150;}.cls-5{fill:#64639c;}.cls-6{fill:#83d0fb;}</style></defs><title/><rect class="cls-1" height="1246.76" width="1632.3" x="208.9" y="573.6"/><path class="cls-2" d="M347.4,573.6H208.9V1820.3H1841.1V1670.1H1443.9C838.3,1670.1,347.4,1179.2,347.4,573.6Z"/><path class="cls-3" d="M468.7,499.3a20,20,0,0,1-10.6-37L952,152.8a144.5,144.5,0,0,1,153.6,0l486.3,304.7a20,20,0,0,1-21.2,33.9L1084.4,186.6a105.2,105.2,0,0,0-111.2,0L479.3,496.2A19.5,19.5,0,0,1,468.7,499.3Z"/><path class="cls-3" d="M706.2,1138H467.3a19.9,19.9,0,0,1-20-20V719.7a20,20,0,0,1,20-20H706.2a20,20,0,0,1,0,40H487.3V1098H706.2a20,20,0,0,1,0,40Z"/><path class="cls-3" d="M649,938.9H467.3a20,20,0,0,1,0-40H649a20,20,0,0,1,0,40Z"/><path class="cls-3" d="M922.3,881.5H785.9a20,20,0,0,1,0-40H922.3a20,20,0,0,1,0,40Z"/><path class="cls-3" d="M922.3,996.3H785.9a20,20,0,1,1,0-40H922.3a20,20,0,0,1,0,40Z"/><path class="cls-3" d="M1183.5,1138a19.9,19.9,0,0,1-19.5-15.7l-65.5-296.6L1033,1122.3a20,20,0,0,1-39.1-8.6l85.1-385a20,20,0,0,1,39,0l85.1,385a20,20,0,0,1-15.2,23.8A16.5,16.5,0,0,1,1183.5,1138Z"/><path class="cls-3" d="M1353.6,1138a20,20,0,0,1-19.5-15.7l-65.5-296.6-65.5,296.6a20,20,0,0,1-39.1-8.6l85.1-385a20,20,0,0,1,39,0l85.1,385a19.9,19.9,0,0,1-15.2,23.8A16.5,16.5,0,0,1,1353.6,1138Z"/><path class="cls-3" d="M1582.7,1148c-95.2,0-172.7-77.5-172.7-172.7s77.5-172.7,172.7-172.7a20,20,0,0,1,0,40c-73.1,0-132.7,59.5-132.7,132.7s59.6,132.7,132.7,132.7a20,20,0,0,1,0,40Z"/><path class="cls-3" d="M1506.4,1348.7H468.7a20,20,0,0,1,0-40H1506.4a20,20,0,0,1,0,40Z"/><path class="cls-3" d="M1308.7,1494.2h-840a20,20,0,0,1,0-40h840a20,20,0,0,1,0,40Z"/><path class="cls-3" d="M1308.7,1639.6h-840a20,20,0,1,1,0-40h840a20,20,0,1,1,0,40Z"/><path class="cls-3" d="M1914.2,578.3H135.8a20,20,0,0,1-20-20v-79a19.9,19.9,0,0,1,20-20H1914.2a19.9,19.9,0,0,1,20,20v79A20,20,0,0,1,1914.2,578.3Z"/><path class="cls-3" d="M1914.2,1919.3H135.8a19.9,19.9,0,0,1-20-20v-79a20,20,0,0,1,20-20H1914.2a20,20,0,0,1,20,20v79A19.9,19.9,0,0,1,1914.2,1919.3Z"/><path class="cls-4" d="M184.3,534.2a20.1,20.1,0,0,1-20-20V459.3H135.8a19.9,19.9,0,0,0-20,20v79a20,20,0,0,0,20,20H1914.2a20,20,0,0,0,20-20V534.2Z"/><path class="cls-4" d="M184.3,1875.2a20,20,0,0,1-20-20v-54.9H135.8a20,20,0,0,0-20,20v79a19.9,19.9,0,0,0,20,20H1914.2a19.9,19.9,0,0,0,20-20v-24.1Z"/><rect class="cls-5" height="37.54" rx="18.8" ry="18.8" width="986" x="455.5" y="461.7"/><rect class="cls-5" height="45.27" rx="22.6" ry="22.6" width="479.3" x="696.7" y="1800.3"/><rect class="cls-6" height="539.23" rx="46.2" ry="46.2" width="92.4" x="1748.8" y="726.6"/></svg>