<?xml version="1.0" encoding="utf-8"?>
<!-- Svg Vector Icons : http://www.onlinewebfonts.com/icon -->
<!DOCTYPE svg PUBLIC "-//W3C//DTD SVG 1.1//EN" "http://www.w3.org/Graphics/SVG/1.1/DTD/svg11.dtd">
<svg version="1.1" xmlns="http://www.w3.org/2000/svg" xmlns:xlink="http://www.w3.org/1999/xlink" x="0px" y="0px" viewBox="0 0 256 256" enable-background="new 0 0 256 256" xml:space="preserve">
<metadata> Svg Vector Icons : http://www.onlinewebfonts.com/icon </metadata>
<g><g><path fill="#ffffff" d="M241.7,86.6L139.2,189.2c-0.2,0.3-0.4,0.7-0.7,1c-2.9,2.9-6.7,4.3-10.5,4.3c-3.8,0-7.6-1.3-10.5-4.3c-0.3-0.3-0.4-0.7-0.7-1L14.3,86.6c-5.7-5.7-5.7-15,0-20.7c5.7-5.7,15-5.7,20.7,0l93,93l93-93c5.7-5.7,15-5.7,20.7,0C247.4,71.6,247.4,80.9,241.7,86.6z"/></g></g>
</svg>